# xmcd
#
# Track frame offsets: 
#        150
#        17067
#        33721
#        63088
#        96125
#        111302
#        147425
#
# Disc length: 2191 seconds
#
# Revision: 2
# Processed by: cddbd v1.5.2PL0 Copyright (c) Steve Scherf et al.
# Submitted via: ExactAudioCopy v0.99pb5
#
DISCID=5d088d07
DTITLE=Various Artist - Maxi Techno Hits Vol. 1
DYEAR=2001
DGENRE=Techno
TTITLE0=S.O.L. vs. GAT-CHA - We call it techno (A day at the parade Ra
TTITLE0=dio Edit)
TTITLE1=S.O.L. vs. GAT-CHA - We call it techno (A night at the club Ra
TTITLE1=dio Edit)
TTITLE2=S.O.L. vs. GAT-CHA - We call it techno (DJ Session One RMX)
TTITLE3=S.O.L. vs. GAT-CHA - We call it techno (Pulsar Crew vs. Gat-Ch
TTITLE3=a RMX)
TTITLE4=DJ Session One - Ocean of Emotion (Munsta Spezial Video Edit)
TTITLE5=DJ Session One - Ocean of Emotion (Munsta Music Club Mix)
TTITLE6=DJ Session One - Ocean of Emotion (Trance Vocal Edit)
EXTD=
EXTT0=
EXTT1=
EXTT2=
EXTT3=
EXTT4=
EXTT5=
EXTT6=
PLAYORDER=
